<svg version="1" xmlns="http://www.w3.org/2000/svg" width="680" height="680" viewBox="0 0 510.000000 510.000000"><path d="M200.1 20.3c-4.2 2.1-6.4 6.1-5.7 10.1.5 2.8 3.5 6.3 13.9 17 7.3 7.4 19.3 19.7 26.7 27.3 24.6 25.1 43 37.7 64.5 44.3 3.9 1.1 13.3 4.8 21 8.1 7.7 3.4 18.7 8 24.4 10.4 5.7 2.3 10.8 5.1 11.4 6 .5 1 1.1 4.1 1.2 6.9.4 6.3 1.6 34.2 2 45.1.3 8.6 1.4 32.5 2 44 .2 3.8.7 18.9 1 33.5.6 30.9 1.2 45.3 2 49.5 3.2 17 14.2 30.2 30.1 35.9 18.3 6.5 24.5 11.2 28.3 20.9 1.8 4.7 2 6.7 1.4 20.7-.3 8.5-.5 26.9-.4 40.9.2 28.6.6 30.3 7 32.1 4.1 1.1 7.5-.2 10.3-4 1.7-2.3 1.9-4.4 1.7-20.5-.1-24.3 0-30.8.8-39 1.1-11.2 1-17.5-.4-25.5-1.4-8.4-6.6-19.8-11.2-24.6-7.3-7.7-17.7-14.2-27.6-17.4-11.2-3.6-17-8.4-19.9-16.6-2.2-6.3-2.8-12.5-3.1-32.4-.3-19.2-1.4-53.1-2-63.5-.2-3.3-.6-13-1-21.5-.3-8.5-.8-18.7-1-22.5-.2-3.9-.7-14.7-1-24-.3-10.2-1.2-19.1-2-22.2-2-6.8-7.8-12.7-16.4-16.5-3.6-1.6-13.6-6.3-22.1-10.3-8.5-4.1-20.9-9.3-27.5-11.6-14.8-5.1-22.8-9.1-32.8-16.3-9.6-6.8-13.8-10.7-28.6-26.1C212.2 22.4 208.6 19 205.5 19c-1.7 0-4.1.6-5.4 1.3z"/><path d="M163.5 58.6c-4.5 2.3-6.4 4.3-10.6 11.5-6.4 10.6-5.9 12.2 6.8 25.9 7.2 7.6 14.5 25.2 14.6 35 0 11.8-6.4 28.3-14.9 37.8-2.5 2.9-8.5 7.8-13.3 10.8-21.6 14.1-22.2 14.6-28.1 20.5-5.2 5.3-8.1 11.6-8.2 18-.2 8.2 1.5 12.6 9.8 25.5 4.2 6.6 13.8 21.8 21.4 33.9 22.5 36.1 26.9 42.5 33.5 48.9 3.4 3.4 8.6 7.2 11.4 8.5 4.8 2.3 5.2 2.8 8.1 10 1.7 4.2 3.5 8.5 4 9.6 1.1 2.3 13.8 31.7 37.6 87 9.1 20.9 17.3 38.9 18.4 40 2.9 2.8 9.3 2.7 20.9-.5 9.8-2.6 15.1-8.9 15.1-17.9 0-8-15.2-71.4-21.9-91.6-3.7-11-11.1-32.4-14.5-42.2-1.4-4-2.6-7.8-2.6-8.5 0-.7 1.7-3.1 3.8-5.3 2-2.2 6.8-7.5 10.5-11.8 3.8-4.2 7.3-7.5 7.7-7.2.7.5 5.4 8.9 15.5 28 15.6 29.4 16.1 30.1 21 31.1 4.4.8 7.9-.6 17.6-6.9 8.8-5.7 12.1-10.3 12.1-17.1 0-8.9-20.6-79.7-26.8-91.7-7-13.9-20.6-20.3-35.2-16.5-8.4 2.1-13.7 4.9-35.5 18.8-10.4 6.6-19 11.8-19.1 11.6-.2-.1-3.7-8.1-8-17.7-4.9-11.3-7.6-18.7-7.6-21.1 0-3.6.8-5.5 8.7-20 27.4-50.3 18.1-97-25.7-128.2-13.5-9.6-20-11.6-26.5-8.2zm18.8 27.3c21 15.8 31.8 37 30.4 59.5-.3 5-.9 10.6-1.2 12.5-1 5-6.2 19.4-8.9 24.4-1.2 2.3-4.3 8-6.9 12.7-6.7 12.3-8.3 20-6.3 30.4.3 1.6 3.2 8.6 6.5 15.5 3.4 6.9 7.2 15.5 8.5 19.1 5.4 14.5 7.1 17.9 9.7 19.4 5.2 3 8.6 2.1 20.9-5.8 42.2-27.2 45.2-28.9 51.2-28.9 4.9 0 8 2.8 10.7 9.7 2.6 6.6 23.1 73.8 23.1 75.7 0 .3-1 .5-2.2.4-1.5-.1-2.9-1.5-4.3-4.1-4.3-8-12.9-24.1-15.5-28.9-1.5-2.8-5.3-9.8-8.4-15.7-6.1-11.5-8.3-13.8-13.1-13.8-5 0-7.4 2.2-27 24.5-17.9 20.4-27.8 27.5-39.7 28.3-10.2.8-18.5-3.8-26.3-14.6-2.3-3.1-9.1-13.8-15.2-23.7-6.1-9.9-16.1-25.9-22.2-35.5-13.1-20.7-15.1-24.2-15.1-27.1 0-3.7 6.3-8.8 28.9-23.5 19-12.3 30.8-30.5 35.6-54.9 1-5.2.5-15.6-1.1-21.8-3.2-12.5-10.3-27.5-15.4-32.7-3.5-3.6-6.2-7.2-5.2-6.9.7.2 4.5 2.9 8.5 5.8zM242 357.5c11.6 33.9 13.6 40.2 17.5 55.5 3.7 14.8 8.9 38 10 44.7.6 4 .5 4.3-1.7 4.3-2.1 0-4-3.9-20.7-43.3-10.2-23.7-19.3-45-20.2-47.2-1-2.2-4.1-9.6-6.9-16.5-2.9-6.9-5.4-13-5.6-13.6-.3-.6 2.2-1.8 5.8-2.8 3.5-1 7.9-2.6 9.8-3.6 1.9-1 3.6-1.7 3.6-1.7.1.1 3.9 11 8.4 24.2z"/><path d="M92.4 107.5c-23.4 5.5-38.1 32.4-30 55.2 2.5 7 8.2 15 14.2 19.7 23.4 18.3 58.5 5.9 66-23.4 5.7-22.5-7.6-45.3-30.2-51.4-4.2-1.2-15.1-1.2-20-.1zm20.3 22.1c12.4 7.2 14.1 26.4 3 36.1-10.2 8.9-24.5 6.2-32.2-6.1-11.7-19.1 9.7-41.2 29.2-30z"/></svg>